<?xml version="1.0" encoding="UTF-8" standalone="no"?><!DOCTYPE svg PUBLIC "-//W3C//DTD SVG 1.1//EN" "http://www.w3.org/Graphics/SVG/1.1/DTD/svg11.dtd"><svg width="100%" height="100%" viewBox="0 0 309 269" version="1.1" xmlns="http://www.w3.org/2000/svg" xmlns:xlink="http://www.w3.org/1999/xlink" xml:space="preserve" xmlns:serif="http://www.serif.com/" style="fill-rule:evenodd;clip-rule:evenodd;stroke-linejoin:round;stroke-miterlimit:2;"><path d="M13.038,140.814c-5.904,-10.535 -9.641,-25.432 -5.736,-47.656c7.548,-42.953 43.613,-55.322 47.472,-58.507c3.858,-3.185 40.096,-44.839 83.381,-22.483c-0,0 50.541,-16.666 70.899,8.821c12.332,-7.02 78.533,-5.846 90.862,69.986c3.601,22.153 2.615,39.939 -0.887,54.157l-11.107,76.907l-6.158,-42.642c-12.542,14.477 -26.222,18.863 -26.222,18.863c-0,-0 -6.986,37.427 -38.648,39.148l-3.977,27.541l-3.983,-27.579c-38.381,-2.237 -54.97,-33.649 -54.97,-33.649c-0,-0 -8.094,0.521 -18.679,-0.885l-6.334,43.86l-6.714,-46.492c-12.316,-3.439 -24.999,-10.076 -31.469,-22.788c-3.457,0.8 -8.03,1.008 -13.161,0.677l-8.565,59.306l-8.971,-62.117c-11.105,-2.765 -22.072,-7.376 -28.727,-13.435l-7.634,52.863l-10.672,-73.896Z" style="fill:url(#_Linear1);"/><path d="M98.666,160.693c-0.533,0.399 -1.139,0.721 -1.806,0.944c-6.255,2.087 -12.946,3.22 -19.899,3.22c-34.71,-0 -62.89,-28.18 -62.89,-62.89c-0,-29.041 19.727,-53.508 46.499,-60.728c11.257,-17.038 30.579,-28.287 52.508,-28.287c9.502,0 18.514,2.111 26.593,5.89c0.134,-0.083 0.271,-0.162 0.413,-0.236c8.713,-4.567 18.625,-7.152 29.136,-7.152c14.434,-0 27.739,4.872 38.358,13.061c4.979,-1.27 10.194,-1.946 15.566,-1.946c34.71,-0 62.89,28.18 62.89,62.89c-0,4.2 -0.413,8.304 -1.2,12.274c-0.057,0.287 -0.133,0.565 -0.225,0.835c5.432,9.299 8.545,20.114 8.545,31.651c-0,28.133 -18.514,51.976 -44.012,60.001c-0.196,0.062 -0.393,0.113 -0.59,0.156c-6.343,15.546 -21.618,26.515 -39.434,26.515c-19.327,-0 -35.661,-12.909 -40.851,-30.566c-25.977,7.427 -54.36,-2.692 -69.601,-25.632Zm-45.935,-102.592c-15.427,8.545 -25.88,24.995 -25.88,43.866c0,27.656 22.454,50.109 50.11,50.109c5.518,0 10.83,-0.893 15.797,-2.544c-4.001,-9.808 -5.342,-20.165 -4.292,-30.184c-2.96,1.477 -6.141,2.629 -9.506,3.401c-3.232,0.741 -6.463,1.091 -9.644,1.083c-3.526,-0.009 -6.383,-2.879 -6.374,-6.406c0.009,-3.527 2.88,-6.383 6.407,-6.374c2.227,0.005 4.49,-0.241 6.753,-0.76c8.117,-1.862 14.694,-6.885 18.732,-13.47c0.4,-0.652 0.897,-1.206 1.463,-1.657c1.906,-2.169 5.119,-2.836 7.784,-1.428c3.118,1.647 4.313,5.517 2.665,8.635c-7.516,14.226 -8.074,31.814 0.067,47.063c13.025,24.397 43.407,33.63 67.804,20.606c4.114,-2.197 7.797,-4.886 11.015,-7.957c2.551,-2.436 6.6,-2.341 9.035,0.21c2.435,2.551 2.341,6.599 -0.21,9.035c-4.038,3.854 -8.659,7.23 -13.821,9.986c-0.142,0.076 -0.285,0.151 -0.427,0.226c3.229,12.959 14.956,22.569 28.909,22.569c16.441,0 29.79,-13.349 29.79,-29.79c0,-4.526 -1.01,-8.818 -2.819,-12.661c-1.503,-3.191 -0.133,-7.001 3.058,-8.504c3.191,-1.502 7.001,-0.132 8.504,3.059c2.588,5.496 4.038,11.633 4.038,18.106c-0,0.405 -0.006,0.809 -0.017,1.212c16.96,-8.034 28.701,-25.314 28.701,-45.313c0,-19.69 -11.381,-36.743 -27.919,-44.933c-0.414,0.276 -0.867,0.509 -1.355,0.687c-3.938,1.442 -7.629,3.743 -10.787,6.901c-5.888,5.888 -8.793,13.637 -8.717,21.362c0.035,3.526 -2.8,6.418 -6.327,6.453c-3.526,0.035 -6.418,-2.8 -6.453,-6.327c-0.109,-11.039 4.045,-22.111 12.46,-30.525c1.257,-1.257 2.573,-2.419 3.94,-3.486c-1.629,-0.16 -3.281,-0.242 -4.951,-0.242c-8.051,0 -15.66,1.901 -22.403,5.282c-3.153,1.58 -6.996,0.304 -8.577,-2.849c-1.58,-3.153 -0.304,-6.996 2.849,-8.576c5.239,-2.627 10.895,-4.544 16.841,-5.624c-0.752,-6.292 -2.672,-12.226 -5.537,-17.581c-8.443,-15.779 -25.084,-26.527 -44.217,-26.527c-5.783,0 -11.34,0.981 -16.51,2.787c3.208,2.609 6.155,5.527 8.794,8.709c2.251,2.715 1.875,6.747 -0.84,8.998c-2.714,2.252 -6.746,1.876 -8.998,-0.839c-9.195,-11.087 -23.072,-18.156 -38.588,-18.156c-25.934,-0 -47.296,19.742 -49.853,45.008c-0.169,1.677 -0.256,3.379 -0.256,5.101c-0,3.527 -2.863,6.39 -6.39,6.39c-3.527,0 -6.391,-2.863 -6.391,-6.39c0,-2.156 0.109,-4.287 0.322,-6.388c0.394,-3.9 1.146,-7.696 2.221,-11.353Zm165.973,-22.558c2.256,2.873 4.267,5.946 6.002,9.189c3.68,6.876 6.119,14.514 7.018,22.614c16.037,0.366 30.6,6.748 41.517,16.975c-0.606,-27.132 -22.821,-48.972 -50.097,-48.972c-1.496,0 -2.977,0.066 -4.44,0.194Zm-61.265,88.829c3.525,-0.122 6.486,2.64 6.609,6.165c0.122,3.524 -2.64,6.486 -6.165,6.608c-11.032,0.384 -22.204,-3.494 -30.825,-11.696c-4.627,-4.402 -8.045,-9.601 -10.246,-15.179c-1.295,-3.281 0.318,-6.995 3.598,-8.29c3.281,-1.295 6.996,0.318 8.29,3.598c1.539,3.9 3.932,7.534 7.167,10.612c6.033,5.74 13.852,8.451 21.572,8.182Zm16.351,-8.689c-3.39,0.972 -6.931,-0.992 -7.903,-4.383c-0.971,-3.39 0.993,-6.932 4.384,-7.903c3.643,-1.044 7.566,-1.323 11.552,-0.675c14.464,2.351 24.298,16.003 21.947,30.467c-2.257,13.885 -14.93,23.501 -28.736,22.171c-3.511,-0.338 -6.086,-3.463 -5.748,-6.974c0.338,-3.51 3.463,-6.086 6.974,-5.748c7.158,0.69 13.725,-4.3 14.895,-11.5c1.219,-7.501 -3.881,-14.582 -11.383,-15.801c-2.063,-0.335 -4.095,-0.194 -5.982,0.346Zm-28.448,-44.886c-11.598,-3.375 -21.565,-11.619 -26.83,-23.082c-1.472,-3.205 -0.066,-7.002 3.139,-8.474c3.205,-1.473 7.002,-0.066 8.475,3.139c6.107,13.296 21.257,20.394 35.658,16.052c4.454,-1.343 8.363,-3.636 11.569,-6.593c2.593,-2.391 6.639,-2.227 9.03,0.366c2.391,2.593 2.227,6.639 -0.366,9.03c-4.586,4.229 -10.174,7.513 -16.543,9.433c-0.527,0.159 -1.056,0.308 -1.584,0.445c3.483,3.991 6.097,8.48 7.842,13.216c1.219,3.31 -0.478,6.987 -3.787,8.206c-3.309,1.219 -6.986,-0.478 -8.206,-3.787c-1.442,-3.916 -3.737,-7.588 -6.879,-10.73c-3.158,-3.158 -6.85,-5.459 -10.787,-6.901c-0.253,-0.092 -0.497,-0.2 -0.731,-0.32Z" style="fill:url(#_Linear2);"/><defs><linearGradient id="_Linear1" x1="0" y1="0" x2="1" y2="0" gradientUnits="userSpaceOnUse" gradientTransform="matrix(362.665,174.71,-174.71,362.665,-22.9717,7.2109)"><stop offset="0" style="stop-color:#b5ebff;stop-opacity:1"/><stop offset="1" style="stop-color:#2bc6ff;stop-opacity:1"/></linearGradient><linearGradient id="_Linear2" x1="0" y1="0" x2="1" y2="0" gradientUnits="userSpaceOnUse" gradientTransform="matrix(-255.947,-279.209,279.209,-255.947,216.404,215.97)"><stop offset="0" style="stop-color:#002595;stop-opacity:1"/><stop offset="1" style="stop-color:#014;stop-opacity:1"/></linearGradient></defs></svg>